<mxfile host="app.diagrams.net" modified="2024-01-14T14:32:11.739Z" agent="Mozilla/5.0 (Windows NT 10.0; Win64; x64) AppleWebKit/537.36 (KHTML, like Gecko) Chrome/120.0.0.0 Safari/537.36" version="22.1.18" etag="7MPJJjZ2PV6suNPOS_t7" type="github">
  <diagram name="PÃ¡gina-1" id="ti0v7tl_cnINIqNYiAn6">
    <mxGraphModel>
      <root>
        <mxCell id="0" />
        <mxCell id="1" parent="0" />
      </root>
    </mxGraphModel>
  </diagram>
</mxfile>
